#!OML:ASF F:\VICON\USERDATA\INSTALL\rory3\rory3.ASF
:FULLY-SPECIFIED
:DEGREES
105
root 0.39386360535371234 18.327960943951883 38.6394058971361 2.4517648799241236 5.147373321930899 -2.5389877244585697
lfemur -42.385355135723486 -0.9168762080083096 -16.95031200942226
ltibia 44.272874985018454
lfoot -3.8003705630008198 -0.9975417466262888
ltoes -15.728118353738655
rfemur -1.0832839361800346 -3.0932112683994317 26.497868933772807
rtibia 75.9942708653775
rfoot 21.608607198554065 -6.219697308737864
rtoes -0.5543837351790826
lowerback nan 2.2479190756426277 6.364825289132183
upperback -2.4766424393462487 4.288392126100765 -0.7343017432825569
thorax -8.356618826723288 1.498745296925519 -3.579716986049437
lowerneck -21.637851013415602 -5.059725378076632 -1.39972004509819
upperneck 12.894528635331394 -7.174945768533432 4.87385610840162
head 8.00663084042789 -3.4214608692876425 0.801544959802568
lclavicle 5.182439507332892e-14 -8.61368287260165e-15
lhumerus -75.00849847448997 -1.3334496129287068 93.48241041734723
lradius 116.01510303888193
lwrist 32.481235926960295
lhand -24.013261586718492 1.849117131308983
lfingers nan
lthumb 2.398962829542665 32.00013788078323
rclavicle 5.050955545703919e-14 -1.0184021613458731e-14
rhumerus -39.26696956013053 15.048682634724305 -96.45899669151393
rradius 113.82464903402752
rwrist -10.52609155769856
rhand -18.86067984823799 nan
rfingers nan
rthumb 7.14189008172626 10.386210643776675
106
root 0.39733964671107613 18.33354298652674 38.9301109849246 2.6218221667587507 5.123135513286075 -2.40298043710626
lfemur -41.63952165744495 -2.132994980037821 -16.967703542616395
ltibia 39.83992553719342
lfoot -3.2225121677644983 -1.6316715316499533
ltoes -16.465436845768522
rfemur -1.6937291900668612 -2.311546753087077 26.71398490249313
rtibia 76.63183852116293
rfoot 21.53282056212742 -7.159433694139754
rtoes 6.26110397668304
lowerback nan 2.299786226377977 6.037317747386286
upperback -2.7201279412183643 4.275421941661775 -0.8173649871533872
thorax -8.771288326980411 1.5025832714847893 -3.500141263463208
lowerneck -21.023283864799968 -5.143461619105935 -1.396491472969077
upperneck 12.727594747866025 -7.189406614756505 4.803013165389778
head 7.924916680368279 -3.4720260463206833 0.7798159878006417
lclavicle -1.035662797212739e-15 -3.2434476787915307e-16
lhumerus -74.99872474024272 -0.6927122798276582 92.81084801758388
lradius 117.2085525935546
lwrist 32.341781257784355
lhand -23.95015048180686 1.5018224923238377
lfingers nan
lthumb 2.477022609433389 31.674408486934553
rclavicle -2.5389333779131334e-15 -2.2647397489050723e-15
rhumerus -39.887641234019796 15.56589987409318 -96.98276626495839
rradius 113.74991165554397
rwrist -11.41201777135062
rhand -18.823908566872454 nan
rfingers nan
rthumb 7.189113443868076 9.989778803284104
107
root 0.4091276843683662 18.339800698742817 39.28098388656112 2.7617458641109476 5.1416544945627285 -2.5580056289146316
lfemur -40.448029318042956 -3.330463191257938 -16.588985649972322
ltibia 35.73403987631808
lfoot -2.998872850613352 -2.276514056411637
ltoes -17.709588196721676
rfemur -2.4662927253536076 -1.836977983441672 27.16182278843532
rtibia 78.01498244398749
rfoot 20.408760423819732 -7.805435791262504
rtoes -1.6433657076190942
lowerback nan 2.272403764237325 6.156307491727254
upperback -2.858287063950253 4.260675886826417 -0.7484341450561718
thorax -9.15727349371569 1.4964964284710698 -3.62465703551785
lowerneck -21.36470858317742 -5.17995104238099 -1.446729653083565
upperneck 13.107745950940298 -7.09166547901884 4.697441416110533
head 8.079606692340365 -3.4596740224433375 0.7452749346998265
lclavicle -1.6364509643669546e-14 9.742708810975596e-15
lhumerus -74.63533218554004 -0.1411836670122657 92.21663589839821
lradius 118.30720647167398
lwrist 32.12282411485551
lhand -23.486843701937243 1.2608236756822704
lfingers nan
lthumb 2.9034443064091944 31.4279466278904
rclavicle -1.8005528051141475e-14 7.617579974618385e-15
rhumerus -40.376999437737894 16.128733740778816 -97.53345988788944
rradius 113.60532616534564
rwrist -11.78129734223828
rhand -18.579564561063265 nan
rfingers nan
rthumb 7.427786149558463 10.121349527063948
108
root 0.41594449736647876 18.34988115700994 39.80274631303849 2.8421434255264053 4.7527591260567 -2.7496395316944984
lfemur -38.97093992783803 -4.29593994901199 -16.006554714248306
ltibia 31.761317699017052
lfoot -2.332717614946852 -2.6521364423329903
ltoes -16.99531180185176
rfemur -3.347948560657997 -1.2918892843194734 27.550310095077517
rtibia 80.07711085669587
rfoot 18.744954458295524 -8.59828409965855
rtoes -6.03816739865809
lowerback nan 2.3086818572002197 6.172912539606482
upperback -2.855190780565077 4.373374802720211 -0.5823721849530268
thorax -9.435897643105873 1.56055619716397 -3.662952571754209
lowerneck -22.233717338034634 -5.121757666733702 -1.6113985605767411
upperneck 13.724159351299908 -6.946176063496136 4.643345845675569
head 8.361318033963686 -3.3890466941034427 0.7394578414191775
lclavicle 5.624994457203469e-14 -5.0272141683131866e-15
lhumerus -73.98660249634761 0.3391002049786458 91.77629826006611
lradius 119.35976548380737
lwrist 31.78271579858381
lhand -23.5197869006241 2.147518991998599
lfingers nan
lthumb 2.8492583836404437 32.325769448878596
rclavicle 5.5391963982845706e-14 -7.0180854021161924e-15
rhumerus -40.67414015306902 16.90736799318134 -97.93326507558963
rradius 113.40059572411039
rwrist -12.402090388187144
rhand -18.576324844713888 nan
rfingers nan
rthumb 7.431852723099908 10.389728556385563
109
root 0.4192265490827394 18.357819727700235 40.27145410109668 2.912484541832118 4.364761353929089 -3.125720552279789
lfemur -37.48825411241542 -5.05728283844297 -15.250982207790344
ltibia 28.31891525876685
lfoot -1.7813038107519876 -2.345650429426616
ltoes -16.7301750897587
rfemur -4.347398232774452 -0.7010980978328456 28.231537932310324
rtibia 82.80772247112803
rfoot 16.919811446249895 -10.143757958869001
rtoes -4.766190166216071
lowerback nan 2.3671743074674554 6.275016100813367
upperback -2.860136105060188 4.55696963268167 -0.3158041814175008
thorax -9.601352902800082 1.650802066450518 -3.62962734331032
lowerneck -22.182258992399607 -5.061193246526953 -1.7169143697244496
upperneck 13.573896130650645 -6.846779831547277 4.606853373856641
head 8.345471585599746 -3.3405646735821852 0.7354478790301339
lclavicle 1.91481426906756e-15 -6.132449730131125e-15
lhumerus -73.14138234593533 0.6920172326371148 91.50768608549379
lradius 120.35534029552544
lwrist 31.458620176696392
lhand -23.548181655758206 2.041736329385195
lfingers nan
lthumb 2.816037839867555 32.2099736854003
rclavicle 1.470862711595776e-15 -8.056008149121596e-15
rhumerus -41.09703371003536 17.53583620049472 -98.39506533584128
rradius 113.21606313376226
rwrist -12.633864034251673
rhand -18.4441070832638 nan
rfingers nan
rthumb 7.559981111909285 10.368770488170227
110
root 0.4049679114100847 18.36256121209968 40.32485276309819 2.908925508093964 4.1483723997446385 -3.6491257632115723
lfemur -36.0173474445603 -5.474913370617871 -14.625348488323727
ltibia 25.31822141178949
lfoot -1.552947768144172 -1.4140930029252088
ltoes -18.702426770960543
rfemur -5.496178542190149 -0.3008683795765701 29.102908755410578
rtibia 86.1334357897273
rfoot 15.329137144189609 -12.457566702777848
rtoes -2.0517958423431137
lowerback nan 2.37439085291134 6.533194463967142
upperback -2.786037638789967 4.705193428232566 -0.055256844541836214
thorax -9.548813010963894 1.7153697762561724 -3.6410068220661147
lowerneck -21.71626973675523 -5.0853083931150795 -1.921145419996481
upperneck 12.84265507724664 -6.8725052471894115 4.708693809184775
head 8.149092617558962 -3.3257402055895193 0.7941402163139182
lclavicle 2.2914536888599888e-14 1.1882095452023012e-14
lhumerus -72.15172744469204 0.7950934676440102 91.26061103304964
lradius 121.27832061083797
lwrist 31.254683818952863
lhand -22.914879577221885 -0.9123763184149787
lfingers nan
lthumb 3.424567186662747 29.24375236392484
rclavicle 2.233004008185422e-14 9.9836514291001e-15
rhumerus -41.56151921510996 17.898455507625336 -98.96295700292114
rradius 113.00020623268347
rwrist -11.793561928036219
rhand -18.1749270623845 nan
rfingers nan
rthumb 7.80658037084853 10.309369499810908
111
root 0.3676919483461022 18.366750370237003 40.44763069106726 2.882466471922948 3.631112275242976 -4.284246851827023
lfemur -34.59840400743988 -4.9628512977605235 -14.262751350550905
ltibia 22.962049901617856
lfoot -1.1712364798888746 -0.7414535219412715
ltoes -23.34343720339367
rfemur -6.755198704134644 0.18217723108586725 30.03240115521477
rtibia 89.89247752953798
rfoot 13.844695778099705 -15.295618286856001
rtoes -0.585293036645921
lowerback nan 2.4700621559606692 6.853077769924456
upperback -2.7181641885000714 5.022195572337492 0.14091495382815689
thorax -9.569759112689383 1.8377966028087231 -3.7933146371628093
lowerneck -21.71488097159127 -5.1550817424146045 -2.048783432910255
upperneck 12.499026695455505 -6.952721192025415 4.904167980653412
head 8.102729015056417 -3.333192240699815 0.8735570374802668
lclavicle -2.3986194166093727e-14 -6.343321464035494e-15
lhumerus -71.28909952412961 0.66284610536397 91.0627504149692
lradius 122.26170109163581
lwrist 31.07214844260465
lhand -22.588458485629847 -2.5093198149337805
lfingers nan
lthumb 3.731264709976724 27.748534631057314
rclavicle -2.4526724901925827e-14 -8.322401677918896e-15
rhumerus -42.15676848693465 18.005043451426708 -99.70128433072615
rradius 112.72498309135827
rwrist -10.767805973283293
rhand -18.22062504657396 nan
rfingers nan
rthumb 7.747971581931027 10.413717619091454
112
root 0.3426486213422514 18.372789078187413 40.973718826469295 2.8022056220584135 3.011224448475639 -4.399123205100962
lfemur -33.27548461736486 -4.181160494514415 -14.620958238859057
ltibia 21.256233664353285
lfoot -0.8416255403987167 -0.4508490263284832
ltoes -25.98405541274037
rfemur -7.889682387405619 0.6579841054648276 30.284438507225666
rtibia 93.99059059810926
rfoot 12.349268852312143 -17.480912139549357
rtoes 0.3125710353221205
lowerback nan 2.6453657230068233 6.4949974486710005
upperback -2.6160790049399267 5.347718645662114 0.15132703183921592
thorax -9.66377517461874 1.9832026092479726 -3.7389773483078796
lowerneck -21.728129219315242 -5.201910331949957 -1.9892390794101737
upperneck 11.949631960372049 -6.980584196329767 4.980525140924632
head 7.994111198495903 -3.3420741802552216 0.8908899032399346
lclavicle 3.0960641976687695e-14 9.910669698292693e-15
lhumerus -70.42484556351238 0.43798698711518824 90.98392530792668
lradius 123.13479842333189
lwrist 30.784918161367788
lhand -22.697451273832723 -2.171401313047741
lfingers nan
lthumb 3.663353784580212 27.97017983534989
rclavicle 3.0536393859432125e-14 8.169256357359785e-15
rhumerus -42.83941833632559 18.00576263647152 -100.3803146960539
rradius 112.30970393454304
rwrist -10.166658348523917
rhand -18.55265274542489 nan
rfingers nan
rthumb 7.430013701211075 10.719611469693717
